<svg xmlns="http://www.w3.org/2000/svg" viewBox="0 0 32 32">
  <circle cx="16" cy="16" r="16" fill="#6c757d"/>
  <path d="M23.3 8.6C21.4 6.7 18.8 5.6 16 5.6c-5.7 0-10.4 4.6-10.4 10.3 0 1.8.5 3.6 1.4 5.1L5.5 26.4l5.6-1.5c1.5.8 3.2 1.2 4.9 1.2 5.7 0 10.4-4.6 10.4-10.3 0-2.8-1.1-5.4-3.1-7.2zM16 24c-1.5 0-3-.4-4.3-1.2l-.3-.2-3.3.9.9-3.2-.2-.3c-.9-1.4-1.3-3-1.3-4.6 0-4.7 3.9-8.6 8.6-8.6 2.3 0 4.4.9 6.1 2.5 1.6 1.6 2.5 3.8 2.5 6.1-.1 4.7-3.9 8.6-8.7 8.6zm4.7-6.4c-.3-.1-1.5-.8-1.8-.9-.3-.1-.5-.1-.7.1-.2.3-.8.9-1 1.1-.2.2-.3.2-.6.1-.3-.1-1.2-.4-2.3-1.4-.8-.8-1.4-1.7-1.6-2-.2-.3 0-.4.1-.6.1-.1.3-.3.4-.5.1-.2.2-.3.3-.5.1-.2 0-.3 0-.5s-.7-1.6-.9-2.2c-.2-.6-.5-.5-.7-.5h-.6c-.2 0-.5.1-.8.3-.3.3-1 1-1 2.4s1.1 2.8 1.2 3c.1.2 2.1 3.2 5.1 4.5.7.3 1.3.5 1.7.6.7.2 1.4.2 1.9.1.6-.1 1.5-.7 1.8-1.3.2-.6.2-1.2.2-1.3-.1-.1-.3-.2-.6-.3z" fill="white"/>
</svg>
